<svg width="20" height="20" viewBox="0 0 20 20" fill="none" xmlns="http://www.w3.org/2000/svg">
<path d="M0 18.1818V1.81818H6.2C6.41667 1.27273 6.77933 0.833333 7.288 0.5C7.796 0.166667 8.36667 0 9 0C9.63333 0 10.2043 0.166667 10.713 0.5C11.221 0.833333 11.5833 1.27273 11.8 1.81818H18V9.72727C17.6833 9.59091 17.3583 9.47333 17.025 9.37455C16.6917 9.27636 16.35 9.20455 16 9.15909V3.63636H2V16.3636H8.05C8.1 16.697 8.17933 17.0152 8.288 17.3182C8.396 17.6212 8.525 17.9091 8.675 18.1818H0ZM2 15.4545V16.3636V3.63636V9.15909V9.09091V15.4545ZM4 14.5455H8.075C8.125 14.2273 8.204 13.9167 8.312 13.6136C8.42067 13.3106 8.54167 13.0152 8.675 12.7273H4V14.5455ZM4 10.9091H10.1C10.6333 10.4545 11.229 10.0758 11.887 9.77273C12.5457 9.4697 13.25 9.26515 14 9.15909V9.09091H4V10.9091ZM4 7.27273H14V5.45455H4V7.27273ZM9 2.95455C9.21667 2.95455 9.396 2.89 9.538 2.76091C9.67933 2.63242 9.75 2.4697 9.75 2.27273C9.75 2.07576 9.67933 1.91273 9.538 1.78364C9.396 1.65515 9.21667 1.59091 9 1.59091C8.78333 1.59091 8.60433 1.65515 8.463 1.78364C8.321 1.91273 8.25 2.07576 8.25 2.27273C8.25 2.4697 8.321 2.63242 8.463 2.76091C8.60433 2.89 8.78333 2.95455 9 2.95455ZM15 20C13.6167 20 12.4377 19.557 11.463 18.6709C10.4877 17.7842 10 16.7121 10 15.4545C10 14.197 10.4877 13.1248 11.463 12.2382C12.4377 11.3521 13.6167 10.9091 15 10.9091C16.3833 10.9091 17.5627 11.3521 18.538 12.2382C19.5127 13.1248 20 14.197 20 15.4545C20 16.7121 19.5127 17.7842 18.538 18.6709C17.5627 19.557 16.3833 20 15 20ZM14.5 18.1818H15.5V15.9091H18V15H15.5V12.7273H14.5V15H12V15.9091H14.5V18.1818Z" fill="#2C62EE"/>
</svg>
