<svg width="16" height="15" viewBox="0 0 16 15" fill="none" xmlns="http://www.w3.org/2000/svg">
<mask id="path-1-inside-1_109_7" fill="white">
<path d="M10.9835 9.5815C11.8753 8.56828 12.4386 7.26872 12.4386 5.837C12.4386 2.62115 9.64576 0 6.21929 0C2.79281 0 0 2.62115 0 5.837C0 9.05286 2.79281 11.674 6.21929 11.674C7.7213 11.674 9.12945 11.1674 10.209 10.3084L15.0436 14.8458C15.161 14.9559 15.3018 15 15.4426 15C15.5834 15 15.7242 14.9559 15.8416 14.8458C16.0528 14.6476 16.0528 14.2952 15.8416 14.0969L10.9835 9.5815ZM6.19582 10.6167C3.37954 10.6167 1.10304 8.48018 1.10304 5.837C1.10304 3.19383 3.37954 1.05727 6.19582 1.05727C9.0121 1.05727 11.2886 3.19383 11.2886 5.837C11.2886 8.48018 9.0121 10.6167 6.19582 10.6167Z"/>
</mask>
<path d="M10.9835 9.5815C11.8753 8.56828 12.4386 7.26872 12.4386 5.837C12.4386 2.62115 9.64576 0 6.21929 0C2.79281 0 0 2.62115 0 5.837C0 9.05286 2.79281 11.674 6.21929 11.674C7.7213 11.674 9.12945 11.1674 10.209 10.3084L15.0436 14.8458C15.161 14.9559 15.3018 15 15.4426 15C15.5834 15 15.7242 14.9559 15.8416 14.8458C16.0528 14.6476 16.0528 14.2952 15.8416 14.0969L10.9835 9.5815ZM6.19582 10.6167C3.37954 10.6167 1.10304 8.48018 1.10304 5.837C1.10304 3.19383 3.37954 1.05727 6.19582 1.05727C9.0121 1.05727 11.2886 3.19383 11.2886 5.837C11.2886 8.48018 9.0121 10.6167 6.19582 10.6167Z" fill="white"/>
<path d="M10.9835 9.5815L3.47707 2.97441L-2.95337 10.2802L4.17548 16.9062L10.9835 9.5815ZM10.209 10.3084L17.0524 3.01676L10.7481 -2.90008L3.98255 2.48334L10.209 10.3084ZM15.0436 14.8458L21.8871 7.5542L15.0436 14.8458ZM15.8416 14.8458L8.99817 7.5542L15.8416 14.8458ZM15.8416 14.0969L22.685 6.8053L22.6673 6.78873L22.6496 6.77224L15.8416 14.0969ZM10.9835 9.5815L18.4899 16.1886C20.798 13.5663 22.4386 9.97509 22.4386 5.837H12.4386H2.43858C2.43858 4.56235 2.95262 3.57025 3.47707 2.97441L10.9835 9.5815ZM12.4386 5.837H22.4386C22.4386 -3.48982 14.5615 -10 6.21929 -10V0V10C4.72998 10 2.43858 8.73212 2.43858 5.837H12.4386ZM6.21929 0V-10C-2.12297 -10 -10 -3.48982 -10 5.837H0H10C10 8.73212 7.70859 10 6.21929 10V0ZM0 5.837H-10C-10 15.1638 -2.12297 21.674 6.21929 21.674V11.674V1.67401C7.70859 1.67401 10 2.94189 10 5.837H0ZM6.21929 11.674V21.674C9.95192 21.674 13.5619 20.4199 16.4355 18.1334L10.209 10.3084L3.98255 2.48334C4.69698 1.91486 5.49069 1.67401 6.21929 1.67401V11.674ZM10.209 10.3084L3.3656 17.6L8.20022 22.1374L15.0436 14.8458L21.8871 7.5542L17.0524 3.01676L10.209 10.3084ZM15.0436 14.8458L8.20022 22.1374C10.4235 24.2241 13.1274 25 15.4426 25V15V5C17.4761 5 19.8984 5.68782 21.8871 7.5542L15.0436 14.8458ZM15.4426 15V25C17.7578 25 20.4617 24.2241 22.685 22.1374L15.8416 14.8458L8.99817 7.5542C10.9868 5.68782 13.4091 5 15.4426 5V15ZM15.8416 14.8458L22.685 22.1374C27.105 17.9891 27.105 10.9536 22.685 6.8053L15.8416 14.0969L8.99817 21.3885C5.00061 17.6367 5.00061 11.306 8.99817 7.5542L15.8416 14.8458ZM15.8416 14.0969L22.6496 6.77224L17.7915 2.25683L10.9835 9.5815L4.17548 16.9062L9.03356 21.4216L15.8416 14.0969ZM6.19582 10.6167V0.61674C8.29531 0.61674 11.103 2.3692 11.103 5.837H1.10304H-8.89696C-8.89696 14.5912 -1.53624 20.6167 6.19582 20.6167V10.6167ZM1.10304 5.837H11.103C11.103 9.3048 8.29532 11.0573 6.19582 11.0573V1.05727V-8.94273C-1.53624 -8.94273 -8.89696 -2.91714 -8.89696 5.837H1.10304ZM6.19582 1.05727V11.0573C4.09632 11.0573 1.28859 9.3048 1.28859 5.837H11.2886H21.2886C21.2886 -2.91714 13.9279 -8.94273 6.19582 -8.94273V1.05727ZM11.2886 5.837H1.28859C1.28859 2.3692 4.09632 0.61674 6.19582 0.61674V10.6167V20.6167C13.9279 20.6167 21.2886 14.5911 21.2886 5.837H11.2886Z" fill="#2C62EE" mask="url(#path-1-inside-1_109_7)"/>
</svg>
